<svg xmlns="http://www.w3.org/2000/svg" viewBox="0 0 512 512"><path d="M457.522,406.512a293.852,293.852,0,0,1-403.044,0L240.991,34.764a16.79,16.79,0,0,1,30.018,0Z" fill="#f9d36b"/><path d="M68.626,378.317,240.99,34.763a16.793,16.793,0,0,1,30.02,0l4.99,9.95L101.345,392.83C97.219,401.053,59.931,395.647,68.626,378.317Z" fill="#ffc443"/><path d="M463.36,367.811a33.724,33.724,0,0,1-7.2,39.981,293.865,293.865,0,0,1-400.32,0,33.724,33.724,0,0,1-7.2-39.981l.559-1.1a33.523,33.523,0,0,1,51.914-10.164,235,235,0,0,0,309.774,0A33.523,33.523,0,0,1,462.8,366.711Z" fill="#ffb355"/><path d="M271,486.12q-7.455.375-15,.38A292.869,292.869,0,0,1,55.84,407.79a33.724,33.724,0,0,1-7.2-39.98l.56-1.1a33.581,33.581,0,0,1,44.95-14.86c-16.65,14.364-19.34,45.68-8.31,55.94A292.8,292.8,0,0,0,271,486.12Z" fill="#f39d40"/><circle cx="246.25" cy="191.5" r="7.5" fill="#c1773d"/><circle cx="388.781" cy="336.02" r="7.5" fill="#c1773d"/><circle cx="324.943" cy="257.413" r="7.5" fill="#c1773d"/><circle cx="316" cy="338.52" r="42.5" fill="#ef5d40"/><path d="M213.5,172.36a42.52,42.52,0,0,1-60.8,38.37l38.12-75.97A42.483,42.483,0,0,1,213.5,172.36Z" fill="#ef5d40"/><path d="M354.91,201.99c-1.29.1-2.6.15-3.91.15a53.315,53.315,0,0,1-40.29-88.25l-12.59-25.1A80.016,80.016,0,0,0,367.51,227.1Z" fill="#8bc932"/><circle cx="147" cy="292.865" r="7.5" fill="#c1773d"/><path d="M242.511,236.958A35.009,35.009,0,0,0,200.077,252.6a5,5,0,0,0,2.668,7.128l8.531,3.105a5,5,0,0,1,2.989,6.408l-4.447,12.216a5,5,0,0,0,2.989,6.409l19.733,7.182a5,5,0,0,0,6.409-2.988l4.446-12.216a5,5,0,0,1,6.409-2.988l8.531,3.105a5,5,0,0,0,6.626-3.745A35.011,35.011,0,0,0,242.511,236.958Z" fill="#8b6838"/><path d="M207.842,342.564a53.009,53.009,0,0,1-17.029-26.378l-23.878,12.9a80.078,80.078,0,0,0,61.29,51.416l8.553-25.75A53.016,53.016,0,0,1,207.842,342.564Z" fill="#8bc932"/><path d="M316,388.52a50,50,0,1,1,50-50A50.057,50.057,0,0,1,316,388.52Zm0-85a35,35,0,1,0,35,35A35.04,35.04,0,0,0,316,303.52Z" fill="#525651"/><path d="M470.046,364.411l-.56-1.1a40.91,40.91,0,0,0-28.923-21.769,41.5,41.5,0,0,0-7.617-.738L405.209,285.52a7.5,7.5,0,1,0-13.407,6.727l25.821,51.467a40.807,40.807,0,0,0-11.682,7.195,227.751,227.751,0,0,1-240.919,37.485,7.5,7.5,0,1,0-6,13.745,242.749,242.749,0,0,0,256.815-39.953,25.63,25.63,0,0,1,21.895-5.913,26.01,26.01,0,0,1,18.388,13.838l.559,1.1A26.358,26.358,0,0,1,451.05,402.3a286.364,286.364,0,0,1-390.1,0,26.359,26.359,0,0,1-5.625-31.092l.559-1.1a26.01,26.01,0,0,1,18.388-13.838,25.631,25.631,0,0,1,21.895,5.913A243.809,243.809,0,0,0,133.2,388.961a7.5,7.5,0,0,0,7.608-12.928,228.781,228.781,0,0,1-34.746-25.124,40.814,40.814,0,0,0-11.681-7.2L156.361,220.17a50,50,0,0,0,44.214-88.126l14.545-28.99a7.5,7.5,0,0,0-13.408-6.726L184.131,131.37l-.015.026L146,207.366c-.016.032-.027.065-.043.1l-66.9,133.343a41.416,41.416,0,0,0-7.617.738,40.914,40.914,0,0,0-28.924,21.769l-.558,1.1a41.425,41.425,0,0,0,8.776,48.872,301.365,301.365,0,0,0,410.538,0A41.427,41.427,0,0,0,470.046,364.411ZM193.713,145.721A35.027,35.027,0,0,1,163.22,206.5Z" fill="#525651"/><path d="M234.258,302.859a12.5,12.5,0,0,1-4.283-.76l-19.733-7.182a12.515,12.515,0,0,1-7.471-16.022l3.591-9.867-6.181-2.249a12.5,12.5,0,0,1-6.636-17.863,42.345,42.345,0,0,1,51.531-19.006h0a42.343,42.343,0,0,1,27.258,47.683,12.5,12.5,0,0,1-16.565,9.418l-6.181-2.25L246,294.628a12.523,12.523,0,0,1-11.739,8.231Zm-16.537-21.183,15.035,5.472,3.591-9.866a12.515,12.515,0,0,1,16.022-7.471l5.611,2.042a27.386,27.386,0,0,0-18.034-27.847h0a27.388,27.388,0,0,0-31.716,9.74l5.611,2.042a12.515,12.515,0,0,1,7.471,16.021Z" fill="#525651"/><path d="M387.1,249.418l-12.862-25.636c-.008-.015-.013-.031-.02-.046l-12.6-25.11-.008-.013-44.181-88.059-.011-.027-12.59-25.1c-.013-.026-.03-.05-.044-.077L277.712,31.4a24.289,24.289,0,0,0-43.424,0L213.708,72.42a7.5,7.5,0,1,0,13.407,6.726L247.7,38.127a9.29,9.29,0,0,1,16.61,0l24.608,49.047A87.489,87.489,0,0,0,363.3,235.44l10.387,20.7a7.5,7.5,0,0,0,13.408-6.727Zm-77.3-120.629,32.628,65.034a45.789,45.789,0,0,1-32.628-65.034ZM351,221.31a72.495,72.495,0,0,1-54.911-119.832l5.77,11.5a60.813,60.813,0,0,0,48.5,96.658l5.767,11.494Q353.567,221.31,351,221.31Z" fill="#525651"/><path d="M228.229,388a7.571,7.571,0,0,1-1.3-.113,87.581,87.581,0,0,1-67.043-56.24,7.5,7.5,0,0,1,3.484-9.161l23.879-12.9a7.5,7.5,0,0,1,10.786,4.574,45.49,45.49,0,0,0,14.628,22.658h0a45.508,45.508,0,0,0,24.855,10.47,7.5,7.5,0,0,1,6.378,9.827l-8.554,25.75A7.5,7.5,0,0,1,228.229,388Zm-51.776-55.533a72.632,72.632,0,0,0,46.786,39.25l3.69-11.109A60.808,60.808,0,0,1,186.755,326.9Z" fill="#525651"/><circle cx="389.36" cy="270.77" r="7.5" fill="#525651"/></svg>